{
  "accessors": [
    {
      "bufferView": 2,
      "componentType": 5126,
      "count": 44938,
      "max": [
        0.46035024523735046,
        0.3806129992008209,
        0.3412628769874573
      ],
      "min": [
        -0.46035027503967285,
        -0.3806130290031433,
        -0.5004453659057617
      ],
      "type": "VEC3"
    },
    {
      "bufferView": 2,
      "byteOffset": 539256,
      "componentType": 5126,
      "count": 44938,
      "max": [
        1.0,
        1.0,
        1.0
      ],
      "min": [
        -1.0,
        -1.0,
        -1.0
      ],
      "type": "VEC3"
    },
    {
      "bufferView": 1,
      "componentType": 5126,
      "count": 44938,
      "max": [
        0.9354304075241089,
        0.9158467054367065
      ],
      "min": [
        -0.03387877717614174,
        0.0
      ],
      "type": "VEC2"
    },
    {
      "bufferView": 0,
      "componentType": 5125,
      "count": 261600,
      "type": "SCALAR"
    }
  ],
  "asset": {
    "extras": {
      "author": "AnymonUsSub (https://sketchfab.com/sebastienthapa20)",
      "license": "CC-BY-4.0 (http://creativecommons.org/licenses/by/4.0/)",
      "source": "https://sketchfab.com/3d-models/stylizedtoon-trophy-565adad7ac89479e92cc2e104406ca4e",
      "title": "Stylized/Toon Trophy"
    },
    "generator": "Sketchfab-16.52.0",
    "version": "2.0"
  },
  "bufferViews": [
    {
      "buffer": 0,
      "byteLength": 1046400,
      "name": "floatBufferViews",
      "target": 34963
    },
    {
      "buffer": 0,
      "byteLength": 359504,
      "byteOffset": 1046400,
      "byteStride": 8,
      "name": "floatBufferViews",
      "target": 34962
    },
    {
      "buffer": 0,
      "byteLength": 1078512,
      "byteOffset": 1405904,
      "byteStride": 12,
      "name": "floatBufferViews",
      "target": 34962
    }
  ],
  "buffers": [
    {
      "byteLength": 2484416,
      "uri": "scene.bin"
    }
  ],
  "extensionsUsed": [
    "KHR_materials_clearcoat",
    "KHR_materials_specular"
  ],
  "materials": [
    {
      "doubleSided": true,
      "extensions": {
        "KHR_materials_clearcoat": {
          "clearcoatFactor": 1.0,
          "clearcoatRoughnessFactor": 0.04
        },
        "KHR_materials_specular": {
          "specularColorFactor": [
            1.0,
            1.0,
            1.0
          ],
          "specularFactor": 1.0
        }
      },
      "name": "M_Tropy",
      "pbrMetallicRoughness": {
        "baseColorFactor": [
          1.0,
          0.638349,
          0.0,
          1.0
        ],
        "metallicFactor": 0.7661752302905307,
        "roughnessFactor": 0.4258779563147647
      }
    }
  ],
  "meshes": [
    {
      "name": "Trophy_M_Tropy_0",
      "primitives": [
        {
          "attributes": {
            "NORMAL": 1,
            "POSITION": 0,
            "TEXCOORD_0": 2
          },
          "indices": 3,
          "material": 0,
          "mode": 4
        }
      ]
    }
  ],
  "nodes": [
    {
      "children": [
        1
      ],
      "matrix": [
        1.0,
        0.0,
        0.0,
        0.0,
        0.0,
        2.220446049250313e-16,
        -1.0,
        0.0,
        0.0,
        1.0,
        2.220446049250313e-16,
        0.0,
        0.0,
        0.0,
        0.0,
        1.0
      ],
      "name": "Sketchfab_model"
    },
    {
      "children": [
        2
      ],
      "matrix": [
        0.009999999776482582,
        0.0,
        0.0,
        0.0,
        0.0,
        0.0,
        0.009999999776482582,
        0.0,
        0.0,
        -0.009999999776482582,
        0.0,
        0.0,
        0.0,
        0.0,
        0.0,
        1.0
      ],
      "name": "00625822df5344e289dd6be6f98287c9.fbx"
    },
    {
      "children": [
        3
      ],
      "name": "RootNode"
    },
    {
      "children": [
        4
      ],
      "matrix": [
        100.0,
        0.0,
        0.0,
        0.0,
        0.0,
        -2.8212996916465727e-05,
        -99.99999999999602,
        0.0,
        0.0,
        99.99999999999602,
        -2.8212996916465727e-05,
        0.0,
        0.0,
        49.7795295715332,
        0.0,
        1.0
      ],
      "name": "Trophy"
    },
    {
      "mesh": 0,
      "name": "Trophy_M_Tropy_0"
    }
  ],
  "scene": 0,
  "scenes": [
    {
      "name": "Sketchfab_Scene",
      "nodes": [
        0
      ]
    }
  ]
}
